<svg id="Capa_1" enable-background="new 0 0 512 512" height="512" viewBox="0 0 512 512" width="512" xmlns="http://www.w3.org/2000/svg"><g><g><path d="m512 256c0 14.795-1.259 29.291-3.669 43.392-1.781 10.475-4.203 20.725-7.221 30.72-31.777 105.248-129.494 181.888-245.11 181.888-104.704 0-194.741-62.869-234.4-152.907h.011l.011-206.219c39.658-90.026 129.685-152.874 234.378-152.874 140.181 0 254.048 112.672 255.968 252.395.021 1.194.032 2.4.032 3.605z" fill="#82dcec"/><g><g><path d="m512 256c0 65.237-24.405 124.779-64.576 169.984-5.504 6.197-11.296 12.117-17.376 17.739-8.789 8.171-18.165 15.723-28.043 22.592-41.418 28.8-91.733 45.685-146.005 45.685s-104.587-16.885-146.005-45.685c-9.877-6.869-19.253-14.421-28.043-22.592-6.08-5.621-11.872-11.541-17.376-17.739-17.589-19.787-32.149-42.336-42.965-66.891l.011-206.219c3.605-8.192 7.637-16.16 12.053-23.872 44.128 77.067 127.168 129.003 222.325 129.003s178.208-51.936 222.325-129.003c21.43 37.43 33.675 80.779 33.675 126.998z" fill="#6fced8"/></g></g></g><g><g><path d="m26.396 369.33c5.648 11.42 12.114 22.363 19.342 32.74 10.621 15.261 22.86 29.311 36.47 41.901 45.645 42.225 106.702 39.262 173.792 39.262 67.121 0 128.205 2.939 173.856-39.322 13.584-12.575 25.801-26.604 36.405-41.841 7.228-10.377 13.695-21.32 19.342-32.74z" fill="#5b638c"/><path d="m256 369.33v100.888c67.123 0 128.209 15.948 173.862-26.318 22.832-21.139 41.805-46.387 55.741-74.57z" fill="#464d7f"/><path d="m28.587 340.16c0 7.232-2.624 13.845-6.976 18.933-2.731-6.187-5.227-12.501-7.456-18.933v-25.173c8.64 5.066 14.432 14.442 14.432 25.173z" fill="#2f316e"/><circle cx="93.635" cy="340.165" fill="#2f316e" r="29.164"/><circle cx="93.635" cy="340.165" fill="#3b407a" r="15.71"/><circle cx="181.917" cy="340.165" fill="#234177" r="29.164"/><circle cx="181.917" cy="340.165" fill="#2f316e" r="15.71"/><circle cx="276.132" cy="340.165" fill="#234177" r="29.164"/><circle cx="275.784" cy="340.165" fill="#2f316e" r="15.71"/><circle cx="369.651" cy="340.165" fill="#234177" r="29.164"/><circle cx="369.651" cy="340.165" fill="#2f316e" r="15.71"/><g><path d="m77.493 175.445v25.803h-47.594c-5.12 0-9.643-2.048-12.928-5.291 1.067-6.421-.363-13.259-4.565-18.901 2.667-8.256 5.749-16.32 9.216-24.181h33.301c12.469 0 22.57 10.101 22.57 22.57z" fill="#2f316e"/><path d="m328.614 152.876h-122.44c-12.463 0-22.566 10.103-22.566 22.566v25.801h167.572v-25.801c0-12.463-10.103-22.566-22.566-22.566z" fill="#2f316e"/><path d="m502.091 289.355c0 3.403-.352 6.763-1.024 10.037-4.565 22.379-24.139 40.768-49.824 40.768h-437.088c-1.152-3.317-2.24-6.667-3.264-10.048-3.019-9.995-5.44-20.245-7.221-30.72 4.821 0 8.736-3.915 8.736-8.736v-113.6h338.603c39.52 0 75.755 14.059 103.979 37.44l42.229 53.323c3.327 7.072 4.874 14.4 4.874 21.536z" fill="#5989ff"/><path d="m501.067 299.392c-4.565 22.379-24.139 40.768-49.824 40.768h-314.059v-163.104h213.824c39.52 0 75.755 14.059 103.979 37.44l42.229 53.323c4.918 10.442 5.942 21.429 3.851 31.573z" fill="#3d77ea"/><path d="m501.067 299.392h-497.398c-1.76-10.325-2.912-20.864-3.403-31.573 6.709 0 12.139-5.429 12.139-12.139v-78.624h338.603c39.52 0 75.755 14.059 103.979 37.44l30.005 37.899 12.224 15.424c4.917 10.442 5.941 21.429 3.851 31.573z" fill="#ffedcc"/><path d="m501.067 299.392h-363.883v-122.336h213.824c39.52 0 75.755 14.059 103.979 37.44l42.229 53.323c4.918 10.442 5.942 21.429 3.851 31.573z" fill="#ffedcc"/><path d="m476.096 241.152h-475.669c.512-9.013 1.493-17.909 2.923-26.656 2.091-12.832 5.141-25.333 9.056-37.44h338.603c39.52 0 75.755 14.059 103.979 37.44z" fill="#fff"/><path d="m476.096 241.152h-338.912v-64.096h213.824c39.52 0 75.755 14.059 103.979 37.44z" fill="#fff"/><path d="m87.968 224.651v33.013c0 5.611-4.544 10.155-10.155 10.155h-77.546c-.171-3.915-.267-7.851-.267-11.819 0-14.133 1.141-28 3.349-41.504h74.464c5.611 0 10.155 4.544 10.155 10.155z" fill="#234177"/><path d="m314.358 227.356v27.606c0 7.101-5.757 12.858-12.858 12.858h-104.95c-5.609 0-10.155-4.547-10.155-10.155v-33.012c0-5.609 4.547-10.155 10.155-10.155h104.95c7.101 0 12.858 5.757 12.858 12.858z" fill="#2f316e"/><path d="m497.215 267.821h-134.618c-7.102 0-12.859-5.757-12.859-12.859v-27.605c0-7.102 5.757-12.859 12.859-12.859h92.393c17.549 14.546 32.007 32.703 42.232 53.312-.004.005-.004.005-.007.011z" fill="#2f316e"/><path d="m122.795 177.056h28.768v163.104h-28.768z" fill="#3b407a"/></g><g><g><path d="m430.048 443.723c-8.789 8.171-18.165 15.723-28.043 22.592-41.408 28.789-91.712 45.675-145.963 45.685h-.042c-54.272 0-104.587-16.885-146.005-45.685-9.877-6.869-19.253-14.421-28.043-22.592z" fill="#9bc6f9"/></g></g><path d="m430.048 443.723c-8.789 8.171-18.165 15.723-28.043 22.592-41.408 28.789-91.712 45.675-145.963 45.685v-68.277z" fill="#83b2ff"/><path d="m26.396 369.33c5.648 11.42 12.114 22.363 19.342 32.74h420.523c7.228-10.377 13.695-21.32 19.342-32.74z" fill="#3b407a"/><g fill="#2f316e"><path d="m256 369.33v32.74h210.261c7.228-10.377 13.695-21.32 19.342-32.74z"/><path d="m137.184 177.056h14.379v163.104h-14.379z"/></g></g><g><path d="m207.112 114.882c.001-.092.007-.182.007-.273 0-16.753-13.581-30.335-30.335-30.335-3.98 0-7.777.774-11.26 2.168-6.727-12.051-19.598-20.205-34.379-20.205-19.196 0-35.172 13.747-38.645 31.931-1.035-.148-2.092-.229-3.168-.229-10.437 0-19.181 7.225-21.518 16.944h139.298z" fill="#fff"/><path d="m177.514 114.882c0-.053.004-.104.004-.157 0-9.634-7.81-17.443-17.443-17.443-2.289 0-4.472.445-6.475 1.247-3.868-6.93-11.269-11.618-19.769-11.618-11.038 0-20.225 7.905-22.222 18.361-.595-.085-1.203-.132-1.822-.132-6.001 0-11.029 4.154-12.373 9.743h80.1z" fill="#dfebff"/></g><g><path d="m443.381 114.882c.001-.092.007-.182.007-.273 0-16.753-13.581-30.335-30.335-30.335-3.98 0-7.777.774-11.26 2.168-6.727-12.051-19.598-20.205-34.379-20.205-19.196 0-35.172 13.747-38.645 31.931-1.035-.148-2.092-.229-3.168-.229-10.436 0-19.181 7.225-21.518 16.944h139.298z" fill="#fff"/><path d="m413.783 114.882c0-.053.004-.104.004-.157 0-9.634-7.81-17.443-17.443-17.443-2.289 0-4.472.445-6.475 1.247-3.868-6.931-11.269-11.619-19.769-11.619-11.038 0-20.225 7.905-22.221 18.361-.595-.085-1.203-.132-1.822-.132-6.001 0-11.029 4.154-12.373 9.743z" fill="#dfebff"/></g></g></g></svg>